PathFileType	4	(X/Y/Z)	6_coords_data.trc
DataRate	CameraRate	NumFrames	NumMarkers	Units	OrigDataRate	OrigDataStartFrame	OrigNumFrames
30.0	30.0	9	21	m	30.0	42	82
Frame#	Time	THUMB_TIP	THUMB_IP	THUMB_MCP	THUMB_CMC	INDEX_TIP	INDEX_DIP	INDEX_PIP	INDEX_MCP	MIDDLE_TIP	MIDDLE_DIP	MIDDLE_PIP	MIDDLE_MCP	RING_TIP	RING_DIP	RING_PIP	RING_MCP	PINKY_TIP	PINKY_DIP	PINKY_PIP	PINKY_MCP	WRIST
X1	Y1	Z1	X2	Y2	Z2	X3	Y3	Z3	X4	Y4	Z4	X5	Y5	Z5	X6	Y6	Z6	X7	Y7	Z7	X8	Y8	Z8	X9	Y9	Z9	X10	Y10	Z10	X11	Y11	Z11	X12	Y12	Z12	X13	Y13	Z13	X14	Y14	Z14	X15	Y15	Z15	X16	Y16	Z16	X17	Y17	Z17	X18	Y18	Z18	X19	Y19	Z19	X20	Y20	Z20	X21	Y21	Z21
41	1.3666666666666667	0.0185664005279541	-0.11984200286865235	0.9976519775390625	0.01789550018310547	-0.09508039855957032	1.0124400024414062	0.007064549922943115	-0.07493209838867188	1.0348699951171876	0.0027504599094390868	-0.039064098358154296	1.048469970703125	0.013059100151062012	-0.04908940124511719	1.0200700073242188	0.028911800384521485	-0.05074169921875	1.0084000244140625	0.03019659996032715	-0.058021900177001956	0.9845289916992187	-0.010434800148010254	-0.05734000015258789	0.9913930053710938	0.0164960994720459	-0.03479209899902344	1.0228900146484374	0.02716819953918457	-0.03310559844970703	1.0136300048828124	0.0319246997833252	-0.03602090072631836	0.9840159912109375	-0.012712100028991698	-0.033411399841308594	0.9833369750976563	0.011812800407409669	-0.017539800643920897	1.0241700439453125	0.024590700149536134	-0.015982099533081055	1.0139400024414063	0.03221730041503906	-0.015137900352478027	0.9873259887695313	-0.009909210205078125	-0.009075019836425781	0.9852919921875	0.010072400093078613	-0.000900964021682739	1.0213400268554687	0.024845899581909178	-0.000287773013114929	1.0116500244140625	0.0277947998046875	0.003926059961318969	0.9925679931640625	-0.003025429964065551	0.010948100090026856	0.9930339965820313	-0.01838599967956543	-0.00952058982849121	1.0661300048828124
42	1.4	0.018503599166870117	-0.11989499664306641	0.9975750122070313	0.017778799057006835	-0.0951272964477539	1.012489990234375	0.006888169765472412	-0.07485530090332031	1.034989990234375	0.002499769926071167	-0.039161300659179686	1.04847998046875	0.013353599548339843	-0.04910720062255859	1.0207000122070313	0.028942399978637696	-0.05086479949951172	1.008239990234375	0.029980100631713868	-0.05813410186767578	0.984280029296875	-0.010533200263977052	-0.05741790008544922	0.991406982421875	0.016353399276733398	-0.034858299255371095	1.0229600219726562	0.027171899795532226	-0.03319649887084961	1.013489990234375	0.03184239959716797	-0.03603150177001953	0.9842059936523437	-0.01281779956817627	-0.033528900146484374	0.9833499755859375	0.011544699668884278	-0.0176077995300293	1.0243699951171874	0.024474199295043946	-0.01613789939880371	1.0138099975585937	0.03203440093994141	-0.015207599639892579	0.9871209716796875	-0.010056599617004395	-0.009186309814453125	0.98522998046875	0.009993980407714844	-0.001048189997673034	1.0213300170898438	0.024656700134277343	-0.000450801014900207	1.0114099731445312	0.02761240005493164	0.003829610109329223	0.9923460083007812	-0.00333105993270874	0.01085550022125244	0.9930830078125	-0.01860740089416504	-0.009631319999694824	1.0661700439453126
43	1.4333333333333333	0.01843400001525879	-0.11981900024414062	0.9975590209960937	0.017698299407958983	-0.09511799621582032	1.0124400024414062	0.006713490009307862	-0.07489019775390625	1.0349300537109376	0.0024459199905395514	-0.03915019989013672	1.0485	0.013645400047302246	-0.049183101654052735	1.0198300170898438	0.029318300247192383	-0.05098080062866211	1.0073300170898438	0.029529300689697266	-0.05831719970703125	0.9834769897460938	-0.010722900390625	-0.05743989944458008	0.9914119873046875	0.016332000732421876	-0.03494049835205078	1.0228200073242188	0.027453699111938477	-0.03335459899902344	1.01297998046875	0.03166020011901855	-0.03608890151977539	0.9834340209960938	-0.013222700119018554	-0.0335458984375	0.983344970703125	0.011431699752807617	-0.017649499893188477	1.024010009765625	0.02470870018005371	-0.01621150016784668	1.013469970703125	0.031684499740600586	-0.015348199844360352	0.9864249877929687	-0.010377300262451173	-0.009262539863586427	0.985177978515625	0.010124699592590332	-0.001272330045700073	1.021	0.024761699676513673	-0.000654100000858306	1.0108900146484374	0.027352699279785155	0.003694910049438476	0.99181298828125	-0.003529979944229126	0.01075059986114502	0.9931220092773437	-0.01885510063171387	-0.009606280326843263	1.0663399658203125
44	1.4666666666666666	0.018358800888061525	-0.11949600219726562	0.9971939697265625	0.01754669952392578	-0.094818603515625	1.0121400146484374	0.0066773099899292	-0.07470670318603516	1.03481005859375	0.002459340095520019	-0.03904330062866211	1.0483599853515626	0.015498600006103515	-0.04889199829101563	1.0191500244140625	0.0306112003326416	-0.051173099517822264	1.005030029296875	0.028417100906372072	-0.05874530029296875	0.9811630249023438	-0.011420399665832519	-0.057328998565673826	0.9914910278320312	0.016525999069213867	-0.03502239990234375	1.0224299926757812	0.029123199462890624	-0.033565101623535154	1.0110399780273438	0.030586000442504882	-0.036493698120117185	0.9807769775390625	-0.013979700088500977	-0.03352130126953125	0.9832039794921875	0.011863300323486328	-0.017834999084472655	1.0237000122070312	0.02565340042114258	-0.016383899688720702	1.01222998046875	0.030908599853515625	-0.015505800247192383	0.98414697265625	-0.011190199851989746	-0.0093256196975708	0.985197998046875	0.010683899879455566	-0.001633380055427551	1.0202999877929688	0.025270099639892577	-0.000891057014465332	1.0094199829101562	0.02678380012512207	0.003535459995269775	0.9900499877929687	-0.004132639884948729	0.010599900245666503	0.993030029296875	-0.01899959945678711	-0.009590900421142579	1.0663299560546875
45	1.5	0.01853630065917969	-0.11900399780273438	0.9967689819335938	0.017614200592041017	-0.0944395980834961	1.011780029296875	0.006791220188140869	-0.07444020080566406	1.034530029296875	0.0027171299457550047	-0.038836498260498044	1.048199951171875	0.01946299934387207	-0.04875809860229492	1.0173400268554686	0.03293980026245117	-0.051413898468017576	1.001969970703125	0.02729879951477051	-0.05922790145874023	0.9787670288085938	-0.011630599975585937	-0.05713449859619141	0.9914320068359375	0.018510499954223634	-0.03504410171508789	1.0215900268554687	0.031946699142456056	-0.03356480026245117	1.0090700073242187	0.029745399475097658	-0.03670709991455078	0.9780999755859375	-0.014446200370788575	-0.03343159866333008	0.9832769775390625	0.013282400131225586	-0.01779360008239746	1.0232899780273437	0.027519800186157226	-0.01651609992980957	1.0109199829101563	0.03044350051879883	-0.015460200309753418	0.9821530151367187	-0.011707799911499023	-0.009276169776916504	0.9853389892578125	0.012260899543762208	-0.0021697700023651117	1.0196599731445313	0.026644500732421875	-0.001103829979896545	1.008010009765625	0.026418199539184572	0.003588190078735351	0.9882080078125	-0.004479010105133057	0.010661700248718261	0.9932340087890625	-0.019219999313354493	-0.009584199905395508	1.0665
46	1.5333333333333334	0.01937019920349121	-0.11838500213623047	0.99627099609375	0.018233999252319336	-0.09385140228271484	1.0114199829101562	0.007282750129699707	-0.07424710083007813	1.0342900390625	0.003289560079574585	-0.0388203010559082	1.0479200439453125	0.02415999984741211	-0.04851509857177734	1.01552001953125	0.03562829971313477	-0.051708198547363284	0.9986749877929687	0.02683099937438965	-0.059472999572753905	0.9767119750976563	-0.010972100257873535	-0.057012500762939455	0.991156005859375	0.02176689910888672	-0.03488290023803711	1.0206900024414063	0.03615909957885742	-0.033729301452636716	1.0054000244140624	0.02940880012512207	-0.03663290023803711	0.9759829711914062	-0.014457599639892578	-0.03336709976196289	0.9832670288085937	0.01597659969329834	-0.017924200057983397	1.0228800048828126	0.030428199768066405	-0.016503999710083008	1.0092000122070313	0.03016939926147461	-0.015273799896240234	0.980156005859375	-0.011831399917602538	-0.009230999946594239	0.9853060302734375	0.01470930004119873	-0.002578150033950805	1.0196300048828124	0.02886960029602051	-0.001272969961166381	1.0064500122070312	0.026252399444580077	0.0037947499752044667	0.9870360107421875	-0.004380680084228515	0.010707599639892578	0.993072021484375	-0.019410600662231447	-0.0096177396774292	1.0664599609375
47	1.5666666666666667	0.019787599563598633	-0.11762000274658203	0.9956859741210937	0.01862649917602539	-0.09316719818115235	1.0109400024414064	0.007520709991455078	-0.07387339782714844	1.033989990234375	0.003549720048904419	-0.038686500549316404	1.0478699951171875	0.031001399993896485	-0.04805419921875	1.01222998046875	0.038344100952148436	-0.05237229919433594	0.99427001953125	0.02588719940185547	-0.06010490036010742	0.9743920288085938	-0.011251899719238281	-0.05668090057373047	0.9914949951171875	0.02673010063171387	-0.034639400482177736	1.01877001953125	0.03984130096435547	-0.033967899322509765	1.000739990234375	0.0280625	-0.03688790130615234	0.9724290161132813	-0.01485890007019043	-0.03311249923706055	0.9833460083007812	0.020665199279785156	-0.018173599243164064	1.021489990234375	0.034368400573730466	-0.016826499938964845	1.0053900146484376	0.02931760025024414	-0.015014300346374512	0.9773400268554687	-0.012086000442504883	-0.009035269737243652	0.9854509887695313	0.01863599967956543	-0.003225219964981079	1.0184099731445313	0.03142639923095703	-0.001339319944381713	1.00372998046875	0.02569149971008301	0.0042740797996521	0.9852479858398437	-0.004632530212402344	0.010925800323486327	0.9931240234375	-0.019721599578857423	-0.00938173007965088	1.066550048828125
48	1.6	0.019974800109863283	-0.1168290023803711	0.9948779907226563	0.01887229919433594	-0.09247019958496094	1.01022998046875	0.0077607398033142086	-0.07351480102539062	1.03372998046875	0.003397249937057495	-0.03860879898071289	1.0479200439453125	0.03815800094604492	-0.04796419906616211	1.0088900146484374	0.04049209976196289	-0.0531703987121582	0.9895280151367187	0.024523199081420897	-0.06084550094604492	0.9719879760742187	-0.011250900268554688	-0.05640959930419922	0.9915130004882813	0.035109401702880856	-0.03457509994506836	1.0138300170898438	0.043273799896240236	-0.034206199645996097	0.994677001953125	0.02666790008544922	-0.03696630096435547	0.9691439819335937	-0.015265600204467773	-0.03270819854736328	0.9835150146484375	0.028547800064086915	-0.01857550048828125	1.0183099975585939	0.03884590148925781	-0.017088499069213867	1.0008800048828126	0.028327999114990236	-0.014641300201416015	0.9745549926757813	-0.01234060001373291	-0.008776100158691406	0.9856840209960938	0.023671699523925782	-0.003946039915084839	1.0162100219726562	0.033557399749755856	-0.0010523899793624869	1.0000499877929687	0.02490329933166504	0.005218860149383545	0.9833729858398438	-0.004813849925994873	0.011274499893188477	0.9932769775390625	-0.020054000854492188	-0.00919064998626709	1.0665699462890625
49	1.6333333333333333	0.02090620040893555	-0.11591899871826172	0.9942490234375	0.01950589942932129	-0.09175350189208985	1.009719970703125	0.007944369792938232	-0.07329419708251952	1.0332099609375	0.003244479894638061	-0.0388213005065918	1.0476300048828124	0.04721620178222656	-0.04805339813232422	1.0023599853515626	0.0431776008605957	-0.05404619979858399	0.9839609985351563	0.023966899871826174	-0.06148680114746094	0.9699719848632813	-0.010776399612426758	-0.05606079864501953	0.9916160278320313	0.04393270111083984	-0.03383359909057617	1.00872998046875	0.04648550033569336	-0.03429830169677734	0.987864990234375	0.025709999084472655	-0.036792098999023436	0.9659970092773438	-0.015037799835205078	-0.03227239990234375	0.9835789794921875	0.037365699768066404	-0.01898889923095703	1.014780029296875	0.04300790023803711	-0.01710840034484863	0.9959849853515625	0.02807550048828125	-0.013940199851989746	0.9721019897460937	-0.011929599761962891	-0.008395529747009278	0.9855349731445312	0.029386899948120118	-0.00458197021484375	1.0125700073242188	0.035095199584960934	2.8142200782895002e-05	0.996458984375	0.024346700668334963	0.006740930080413818	0.9814669799804687	-0.004417980194091797	0.011714500427246094	0.9932650146484375	-0.02037030029296875	-0.00892743968963623	1.0666700439453125
